<svg id="Layer_2" data-name="Layer 2" xmlns="http://www.w3.org/2000/svg" xmlns:xlink="http://www.w3.org/1999/xlink" viewBox="0 0 984.71 984.71"><defs><style>.cls-1{fill:#090a0a;}.cls-2{fill:#1d70b7;}.cls-3{font-size:105.65px;}.cls-12,.cls-3,.cls-5{fill:#fff;font-family:Myriad Pro;}.cls-4{letter-spacing:1.03px;}.cls-5{font-size:118.75px;}.cls-6{mask:url(#mask);}.cls-7{fill:url(#linear-gradient);}.cls-8{mask:url(#mask-2);}.cls-9{fill:url(#linear-gradient-2);}.cls-10{mask:url(#mask-3);}.cls-11{fill:url(#linear-gradient-3);}.cls-12{font-size:92.93px;}.cls-13{letter-spacing:-2.22px;}.cls-14{mask:url(#mask-4);}.cls-15{fill:url(#linear-gradient-4);}.cls-16{mask:url(#mask-5);}.cls-17{fill:url(#linear-gradient-5);}.cls-18{fill:#1a1b1b;}.cls-19{fill:#3d3f3f;}.cls-20{mask:url(#mask-6);}.cls-21{fill:url(#linear-gradient-6);}.cls-22{filter:url(#luminosity-noclip-6);}.cls-23{filter:url(#luminosity-noclip-5);}.cls-24{filter:url(#luminosity-noclip-4);}.cls-25{filter:url(#luminosity-noclip-3);}.cls-26{filter:url(#luminosity-noclip-2);}.cls-27{filter:url(#luminosity-noclip);}</style><filter id="luminosity-noclip" x="813.95" y="485.16" width="156.79" height="136.86" filterUnits="userSpaceOnUse" color-interpolation-filters="sRGB"><feFlood flood-color="#fff" result="bg"/><feBlend in="SourceGraphic" in2="bg"/></filter><mask id="mask" x="413.96" y="212.28" width="156.79" height="136.86" maskUnits="userSpaceOnUse"><g class="cls-27"/></mask><linearGradient id="linear-gradient" x1="492.36" y1="210.04" x2="492.36" y2="349.19" gradientUnits="userSpaceOnUse"><stop offset="0" stop-color="#00153a"/><stop offset="0.25" stop-color="#01173d"/><stop offset="0.42" stop-color="#031e46"/><stop offset="0.57" stop-color="#072955"/><stop offset="0.71" stop-color="#0c396b"/><stop offset="0.84" stop-color="#134e88"/><stop offset="0.96" stop-color="#1b67aa"/><stop offset="1" stop-color="#1e71b7"/></linearGradient><filter id="luminosity-noclip-2" x="962.76" y="771.2" width="186.85" height="163.11" filterUnits="userSpaceOnUse" color-interpolation-filters="sRGB"><feFlood flood-color="#fff" result="bg"/><feBlend in="SourceGraphic" in2="bg"/></filter><mask id="mask-2" x="562.78" y="498.33" width="186.85" height="163.11" maskUnits="userSpaceOnUse"><g class="cls-26"/></mask><linearGradient id="linear-gradient-2" x1="747.77" y1="657.75" x2="609.68" y2="579.99" xlink:href="#linear-gradient"/><filter id="luminosity-noclip-3" x="635.07" y="765.23" width="178.88" height="169.08" filterUnits="userSpaceOnUse" color-interpolation-filters="sRGB"><feFlood flood-color="#fff" result="bg"/><feBlend in="SourceGraphic" in2="bg"/></filter><mask id="mask-3" x="235.09" y="492.36" width="178.88" height="169.08" maskUnits="userSpaceOnUse"><g class="cls-25"/></mask><linearGradient id="linear-gradient-3" x1="224.06" y1="639.94" x2="372.87" y2="576.93" xlink:href="#linear-gradient"/><filter id="luminosity-noclip-4" x="677.98" y="556.76" width="358.61" height="345.83" filterUnits="userSpaceOnUse" color-interpolation-filters="sRGB"><feFlood flood-color="#fff" result="bg"/><feBlend in="SourceGraphic" in2="bg"/></filter><mask id="mask-4" x="277.99" y="283.88" width="358.61" height="345.83" maskUnits="userSpaceOnUse"><g class="cls-24"/></mask><linearGradient id="linear-gradient-4" x1="677.98" y1="729.67" x2="1036.59" y2="729.67" gradientUnits="userSpaceOnUse"><stop offset="0" stop-color="#fff"/><stop offset="1" stop-color="#fff"/></linearGradient><filter id="luminosity-noclip-5" x="731.67" y="607.32" width="334.11" height="330.7" filterUnits="userSpaceOnUse" color-interpolation-filters="sRGB"><feFlood flood-color="#fff" result="bg"/><feBlend in="SourceGraphic" in2="bg"/></filter><mask id="mask-5" x="331.69" y="334.45" width="334.11" height="330.7" maskUnits="userSpaceOnUse"><g class="cls-23"/></mask><linearGradient id="linear-gradient-5" x1="731.67" y1="772.67" x2="1065.78" y2="772.67" xlink:href="#linear-gradient-4"/><filter id="luminosity-noclip-6" x="676.92" y="349.48" width="604.77" height="602.36" filterUnits="userSpaceOnUse" color-interpolation-filters="sRGB"><feFlood flood-color="#fff" result="bg"/><feBlend in="SourceGraphic" in2="bg"/></filter><mask id="mask-6" x="276.93" y="76.61" width="604.77" height="602.36" maskUnits="userSpaceOnUse"><g class="cls-22"/></mask><linearGradient id="linear-gradient-6" x1="1192.18" y1="438.99" x2="868.88" y2="762.28" xlink:href="#linear-gradient-4"/></defs><title>2</title><circle class="cls-1" cx="492.36" cy="492.36" r="224.72"/><polygon class="cls-2" points="749.63 661.44 235.09 661.44 492.36 212.28 749.63 661.44"/><text class="cls-3" transform="translate(413.96 466) scale(0.97 1)"><tspan class="cls-4">I</tspan><tspan x="26.94" y="0">t is</tspan></text><text class="cls-5" transform="translate(325.69 569.9) scale(0.7 1)">decidedly</text><g class="cls-6"><polygon class="cls-7" points="492.36 212.28 413.96 349.15 570.75 349.15 492.36 212.28"/></g><g class="cls-8"><polygon class="cls-9" points="656.2 498.33 562.78 661.44 749.63 661.44 656.2 498.33"/></g><g class="cls-10"><polygon class="cls-11" points="235.09 661.44 413.96 661.44 331.93 492.36 235.09 661.44"/></g><text class="cls-12" transform="translate(438.96 639.79) scale(0.9 1)">s<tspan class="cls-13" x="36.8" y="0">o</tspan><tspan x="85.59" y="0">.</tspan></text><g class="cls-14"><path class="cls-15" d="M976.35,556.76L678,832.83a224.12,224.12,0,0,0,36.51,69.76l322.09-309.66A224.67,224.67,0,0,0,976.35,556.76Z" transform="translate(-399.99 -272.87)"/></g><g class="cls-16"><path class="cls-17" d="M1052.18,607.32l-320.51,315a226.16,226.16,0,0,0,17,15.71l317.07-315.63Q1059.32,614.56,1052.18,607.32Z" transform="translate(-399.99 -272.87)"/></g><path class="cls-18" d="M892.35,272.87C620.42,272.87,400,493.31,400,765.23s220.44,492.36,492.36,492.36,492.36-220.44,492.36-492.36S1164.27,272.87,892.35,272.87Zm0,717.07c-124.11,0-224.72-100.61-224.72-224.72S768.24,540.51,892.35,540.51s224.72,100.61,224.72,224.72S1016.45,989.95,892.35,989.95Z" transform="translate(-399.99 -272.87)"/><path class="cls-19" d="M892.35,519.53c-135.7,0-245.7,110-245.7,245.7s110,245.7,245.7,245.7,245.7-110,245.7-245.7S1028,519.53,892.35,519.53Zm0,470.42c-124.11,0-224.72-100.61-224.72-224.72S768.24,540.51,892.35,540.51s224.72,100.61,224.72,224.72S1016.45,989.95,892.35,989.95Z" transform="translate(-399.99 -272.87)"/><g class="cls-20"><path class="cls-21" d="M979.3,349.48c-167,0-302.38,135.38-302.38,302.38a305,305,0,0,0,2.73,40.68c30.21-88.44,114-152,212.7-152,124.11,0,224.72,100.61,224.72,224.72a224.49,224.49,0,0,1-99.5,186.62c148.93-18.81,264.12-145.94,264.12-300C1281.68,484.86,1146.3,349.48,979.3,349.48Z" transform="translate(-399.99 -272.87)"/></g></svg>